# xmcd
#
# Track frame offsets:
#   150
#   9067
#   20062
#   30455
#   42580
#   59820
#   72082
#   97095
#   109877
#   135967
#   160237
#   176312
#   193445
#   214962
#   239192
#   244050
#   258590
#   275835
#
# Disc length: 3932 seconds
#
# Revision: 0
# Processed by: cddbd v1.5PL3 Copyright (c) Steve Scherf et al.
# Submitted via: Media_Universe 3.0
#
DISCID=130f5a12
DTITLE=The Yardbirds - Shapes of Things Disc 2/4
DYEAR=1991
DGENRE=R and B
TTITLE0=I'm Talking About you
TTITLE1=Boom Boom
TTITLE2=Honey In Your Hips
TTITLE3=Baby What's Wrong
TTITLE4=Too Much Monkey Business
TTITLE5=Got Love If You Want It
TTITLE6=Smokestack Lightning
TTITLE7=Good Morning Little Schoolgirl
TTITLE8=She's So Respectable
TTITLE9=Five Long Years
TTITLE10=Pretty Girl
TTITLE11=Louise
TTITLE12=I'm A Man
TTITLE13=Here 'This
TTITLE14=Yardbirds Beat (Slow Walk)
TTITLE15=Highway 69
TTITLE16=My Little Cabin
TTITLE17=Take It Easy  Baby (Another Version)
EXTD=
EXTT0=
EXTT1=
EXTT2=
EXTT3=
EXTT4=
EXTT5=
EXTT6=
EXTT7=
EXTT8=
EXTT9=
EXTT10=
EXTT11=
EXTT12=
EXTT13=
EXTT14=
EXTT15=
EXTT16=
EXTT17=
PLAYORDER=
